<svg xmlns="http://www.w3.org/2000/svg" xmlns:xlink="http://www.w3.org/1999/xlink" viewBox="0 0 64 26">
  <defs>
    <path id="a" d="M0 26h64V.021H0z"/>
  </defs>
  <g fill="none" fill-rule="evenodd">
    <path fill="#34338B" d="M42.432 0v4.69h2.53V2.527H61.47v20.948H2.53V2.526h37.878V0H0v26h64V0z"/>
    <g>
      <path d="M16.645 10.68a5.784 5.784 0 00-1.214-2.063 5.755 5.755 0 00-2.012-1.393c-.803-.343-1.736-.515-2.802-.515H5.874v8.697H8.41V8.928h2.206c.611 0 1.16.105 1.643.312.484.209.892.5 1.224.882.33.378.581.83.753 1.355.17.526.257 1.1.257 1.724a5.52 5.52 0 01-.257 1.706c-.172.524-.42.98-.745 1.365-.324.384-.73.688-1.212.907-.485.22-1.038.331-1.663.331H5.874v2.22h4.743c.979 0 1.865-.157 2.655-.47a5.848 5.848 0 002.03-1.32 5.73 5.73 0 001.296-2.053c.3-.8.45-1.696.45-2.686 0-.892-.134-1.732-.403-2.521M28.095 14.494a3.046 3.046 0 00-.836-1.055 4.685 4.685 0 00-1.325-.734c-.52-.195-1.1-.378-1.736-.55a31.76 31.76 0 01-1.295-.347 4.787 4.787 0 01-.93-.367 1.653 1.653 0 01-.559-.467c-.128-.178-.193-.4-.193-.67 0-.464.172-.825.514-1.082.344-.256.864-.384 1.563-.384.392 0 .778.049 1.157.146.38.098.732.217 1.058.357.324.142.599.286.826.432.228.145.384.262.469.349l1.121-2.056a9.514 9.514 0 00-2.02-1.017 7.26 7.26 0 00-2.537-.43c-.663 0-1.282.088-1.857.266A4.599 4.599 0 0020 7.664c-.435.341-.775.77-1.02 1.284-.246.513-.368 1.099-.368 1.76 0 .5.077.932.229 1.291.154.361.384.679.69.955.307.274.688.513 1.149.714.458.203 1 .389 1.627.56.514.146.979.28 1.396.403a6.4 6.4 0 011.066.404c.294.146.52.317.68.513.16.195.239.434.239.716 0 .891-.698 1.337-2.096 1.337a5.89 5.89 0 01-1.469-.183 8.072 8.072 0 01-1.305-.448 8.912 8.912 0 01-1.02-.533c-.289-.177-.488-.321-.597-.432l-1.123 2.184a9.06 9.06 0 002.574 1.246c.955.294 1.924.44 2.905.44.636 0 1.245-.07 1.828-.21a4.62 4.62 0 001.543-.67 3.32 3.32 0 001.067-1.2c.263-.496.394-1.091.394-1.79 0-.597-.097-1.102-.293-1.51M28.81 19.73h2.39l1.838-5.026.334-.91.392-1.072-1.096-3.075-3.857 10.083zm7.225-13.02h-2.159l1.032 2.894.004-.014.744 2.112.814 2.314h.002l.803 2.229 1.255 3.485h2.466l-4.96-13.02z" fill="#34338B"/>
      <mask id="b" fill="#fff">
        <use xlink:href="#a"/>
      </mask>
      <path fill="#34338B" mask="url(#b)" d="M42.43 19.73h2.536v-8.681H42.43zM58.456 10.68a5.78 5.78 0 00-1.212-2.063 5.755 5.755 0 00-2.013-1.393c-.802-.343-1.738-.515-2.803-.515h-4.741v2.22h4.74c.614 0 1.161.104 1.646.311.484.209.891.5 1.222.882.332.378.583.83.755 1.355.17.526.257 1.1.257 1.724a5.52 5.52 0 01-.257 1.706c-.172.524-.421.98-.745 1.365-.325.384-.73.688-1.212.907-.485.22-1.04.331-1.665.331h-2.205v-6.477h-2.536v8.696h4.74c.981 0 1.867-.156 2.658-.47a5.849 5.849 0 002.03-1.319 5.73 5.73 0 001.296-2.053c.3-.8.45-1.696.45-2.686 0-.892-.134-1.732-.405-2.521"/>
      <path fill="#3FC0C6" mask="url(#b)" d="M42.433 9.23h2.524V6.71h-2.524z"/>
    </g>
  </g>
</svg>
